<mxfile
  host="Electron" 
  agent="Mozilla/5.0 (Macintosh; Intel Mac OS X 10_15_7) AppleWebKit/537.36 (KHTML, like Gecko) draw.io/25.0.2 Chrome/128.0.6613.186 Electron/32.2.5 Safari/537.36" 
  version="25.0.2"
  >
  <diagram
    name="-"
    >
    <mxGraphModel
      grid="1" 
      gridSize="10" 
      guides="1" 
      tooltips="1" 
      connect="1" 
      arrows="1" 
      fold="1" 
      page="1" 
      pageScale="1" 
      pageWidth="1" 
      pageHeight="1" 
      math="0" 
      shadow="0"
      >
      <root>
        <mxCell
          id="page"
          />
        <mxCell
          id="root" 
          parent="page"
          />
        <mxCell
          style="verticalAlign=top;aspect=fixed;align=center;spacingLeft=5;spacingRight=5;spacingBottom=5;strokeColor=none;" 
          id="shape_" 
          parent="root" 
          value=" " 
          vertex="1"
          >
          <mxGeometry
            as="geometry" 
            width="62" 
            height="49" 
            x="0" 
            y="0"
            />
          </mxCell>
        <mxCell
          style="sketch=0;html=1;verticalAlign=top;labelPosition=center;verticalLabelPosition=bottom;align=center;spacingTop=-6;fontSize=11;fontStyle=1;fontColor=#999999;shape=image;aspect=fixed;imageAspect=0;image=data:image/svg+xml,PHN2ZyB4bWxucz0iaHR0cDovL3d3dy53My5vcmcvMjAwMC9zdmciIHhtbG5zOnY9Imh0dHBzOi8vdmVjdGEuaW8vbmFubyIgd2lkdGg9IjIwIiBoZWlnaHQ9IjE0LjE0MzAxOTY3NjIwODQ5NiIgdmlld0JveD0iMCAwLjAwMDQ4OTk2NjI0NTM2ODEyMzEgMjAgMTQuMTQzMDE5Njc2MjA4NDk2Ij4mI3hhOwk8c3R5bGUgdHlwZT0idGV4dC9jc3MiPiYjeGE7CS5zdDB7ZmlsbDojNDI4NWY0O30mI3hhOwkuc3Qxe2ZpbGw6IzY2OWRmNjt9JiN4YTsJPC9zdHlsZT4mI3hhOwk8cGF0aCBjbGFzcz0ic3QwIiBkPSJNMTAgMS40NzJhNS41OSA1LjU5IDAgMCAxIDQgMS42bDEtMWE3LjA3IDcuMDcgMCAwIDAtMTAgMGgwbDEgMWE1LjU5IDUuNTkgMCAwIDEgNC0xLjZ6bTAgMTEuMmE1LjU5IDUuNTkgMCAwIDEtNC0xLjZsLTEgMWE3LjA3IDcuMDcgMCAwIDAgMTAgMGgwbC0xLTFhNS41OSA1LjU5IDAgMCAxLTQgMS42eiIvPiYjeGE7CTxwYXRoIGNsYXNzPSJzdDEiIGQ9Ik0xMCAxMC4xNDJhMy4wNiAzLjA2IDAgMCAxLTMtMi4zNEgzLjExdjIuMzhMMCA3LjA3MmwzLjExLTMuMXYyLjM4SDdhMy4wNiAzLjA2IDAgMCAxIDMtMi4zNGgwYTMuMDYgMy4wNiAwIDAgMSAzIDIuMzRoMy45MXYtMi4zOUwyMCA3LjA3MmwtMy4xMSAzLjEydi0yLjM5SDEzYTMuMDYgMy4wNiAwIDAgMS0zIDIuMzR6bTAtNC42OGExLjYxIDEuNjEgMCAxIDAgMS42MSAxLjYxaDBBMS42MSAxLjYxIDAgMCAwIDEwIDUuNDYyeiIvPiYjeGE7PC9zdmc+;strokeColor=none;" 
          id="developer_portal_" 
          parent="shape_" 
          value=" " 
          vertex="1"
          >
          <mxGeometry
            width="42" 
            height="29" 
            as="geometry" 
            x="10" 
            y="10"
            />
          </mxCell>
        </root>
      </mxGraphModel>
    </diagram>
  </mxfile>